<svg width="512" height="512" viewBox="0 0 512 512" fill="none" xmlns="http://www.w3.org/2000/svg">
<g clip-path="url(#clip0_508_3234)">
<path d="M416 0H96C42.9807 0 0 42.9807 0 96V416C0 469.019 42.9807 512 96 512H416C469.019 512 512 469.019 512 416V96C512 42.9807 469.019 0 416 0Z" fill="#0A0A0A"/>
<path d="M243.218 446.031C235.764 445.729 232.49 445.385 223.614 444.049C215.298 442.756 205.216 440.344 197.547 437.759C196.858 437.543 195.608 437.155 194.79 436.983C194.014 436.768 193.152 436.423 192.894 436.164C192.635 435.906 192.032 435.69 191.601 435.69C191.17 435.69 190.093 435.389 189.232 435.001C188.327 434.613 186.991 434.053 186.216 433.708C185.44 433.364 184.578 433.105 184.363 433.105C183.975 433.105 174.539 428.754 172.342 427.547C171.997 427.375 169.671 426.125 167.172 424.833C157.908 419.921 150.498 415.569 149.076 414.148C148.947 414.018 148.516 413.76 148.128 413.501C146.275 412.381 142.656 409.796 141.32 408.59C140.502 407.857 139.683 407.254 139.511 407.254C139.166 407.254 134.298 403.118 127.49 397.043C119.088 389.546 115.814 386.056 104.095 371.665C99.7429 366.323 88.5838 348.184 84.5337 339.825C80.7422 332.07 79.8805 330.045 78.0278 325.176C75.4427 318.325 72.4267 308.847 71.6081 305.141C71.3495 304.064 70.7463 301.608 70.2724 299.626C69.7554 297.644 69.3676 295.576 69.3676 294.973C69.3676 294.37 69.1091 292.689 68.7644 291.225C68.1181 288.596 67.2995 281.358 66.3085 270.457C65.533 261.625 66.3085 237.411 67.6442 228.664C67.9027 227.027 68.4197 223.709 68.7644 221.34C69.4107 217.247 69.7123 215.782 71.2634 209.664C71.6511 208.242 71.9527 206.648 71.9527 206.131C71.9527 205.614 72.2113 204.58 72.5559 203.804C72.9006 203.028 73.5038 201.219 73.9347 199.797C74.3224 198.375 74.9256 196.609 75.2703 195.833C75.5719 195.101 75.8304 194.325 75.8304 194.11C75.8304 193.636 78.2863 187.087 78.8464 186.139C79.1049 185.708 79.2773 185.191 79.2773 184.933C79.2773 184.545 80.0528 182.735 82.5087 177.393C83.9736 174.161 88.2822 165.63 89.1008 164.251C89.6178 163.433 90.221 162.356 90.4364 161.839C90.6519 161.365 91.5998 159.684 92.5476 158.176C93.4524 156.668 94.3141 155.247 94.4003 154.988C94.8312 153.954 100.82 145.121 103.793 141.201C115.426 125.733 130.506 111.213 146.922 99.6229C150.196 97.3394 160.795 90.7473 162.432 89.9718C162.777 89.7994 164.242 89.0239 165.664 88.2483C170.662 85.4478 176.392 82.6903 181.39 80.6653C182.683 80.1483 184.277 79.4589 184.923 79.1142C185.526 78.7695 186.431 78.511 186.862 78.511C187.293 78.511 187.853 78.3387 188.068 78.1232C188.327 77.9078 189.189 77.52 190.007 77.3046C191.472 76.8738 192.765 76.4429 196.039 75.2796C197.504 74.7626 199.314 74.2025 204.872 72.6945C206.293 72.3067 208.146 71.7466 208.965 71.4881C209.783 71.2296 211.334 70.8849 212.412 70.7556C213.489 70.5833 215.212 70.2386 216.289 69.9801C220.813 68.9029 223.14 68.429 225.768 68.1705C227.319 67.9981 230.206 67.6104 232.231 67.3949C246.492 65.5423 266.958 65.5423 280.271 67.3519C282.167 67.6104 284.882 67.9981 286.303 68.1705C287.725 68.3428 289.879 68.6875 291.043 68.946C292.249 69.2045 294.188 69.6354 295.351 69.8939C296.558 70.1524 298.41 70.5402 299.574 70.7556C300.694 70.971 302.245 71.3157 303.021 71.5742C303.753 71.7897 305.476 72.2636 306.769 72.6083C310.647 73.6423 318.101 75.969 319.479 76.5722C320.212 76.8738 321.418 77.2615 322.151 77.3908C322.926 77.5631 323.659 77.9078 323.788 78.1232C323.96 78.3387 324.434 78.511 324.951 78.511C325.425 78.511 326.33 78.7695 326.933 79.0711C327.579 79.4158 328.786 79.9759 329.604 80.3206C332.965 81.7424 334.387 82.3887 340.16 85.1893C343.478 86.8265 347.399 88.8946 348.907 89.7994C350.372 90.7042 351.707 91.4367 351.837 91.4367C351.966 91.4367 352.957 92.0399 354.034 92.7292C355.068 93.4617 356.016 94.0218 356.102 94.0218C356.231 94.0218 357.567 94.8835 359.161 95.9607C360.712 97.0378 362.048 97.8995 362.134 97.8995C362.953 97.8995 374.456 106.603 379.239 110.825C379.627 111.17 381.005 112.333 382.341 113.41C388.933 118.796 400.609 131.593 409.614 143.355C411.51 145.854 418.361 156.022 418.361 156.367C418.361 156.496 418.619 156.97 418.964 157.315C420.127 158.65 428.356 174.678 430.511 179.762C431.76 182.821 432.277 183.985 432.837 185.062C433.182 185.751 433.441 186.613 433.441 187.044C433.441 187.431 433.742 188.164 434.087 188.638C434.432 189.069 434.733 189.801 434.733 190.189C434.733 190.62 434.992 191.568 435.336 192.343C435.681 193.119 436.586 195.79 437.318 198.289C438.094 200.788 438.869 203.287 439.085 203.89C439.257 204.493 439.817 206.734 440.334 208.845C440.808 210.999 441.368 213.412 441.627 214.231C442.101 215.997 443.049 221.038 443.997 226.725C446.668 243.27 446.668 269.294 443.997 285.968C443.652 288.122 443.307 290.535 443.178 291.354C442.79 293.724 440.765 302.815 439.688 306.649C439.3 308.071 438.826 309.967 438.568 310.872C438.352 311.776 438.008 312.81 437.792 313.241C437.62 313.629 437.103 315.051 436.715 316.343C436.327 317.636 435.724 319.403 435.379 320.221C435.078 321.04 434.216 323.366 433.441 325.391C427.926 340.084 418.361 357.361 408.279 370.847C401.902 379.378 391.82 390.451 384.108 397.387C379.541 401.48 378.119 402.73 376.955 403.592C376.309 404.066 373.896 405.918 371.57 407.728C362.866 414.363 354.292 419.878 345.977 424.187C343.262 425.565 340.548 426.987 339.945 427.289C337.748 428.452 331.414 431.339 327.666 432.89C325.554 433.752 323.142 434.743 322.366 435.087C321.59 435.432 320.599 435.69 320.212 435.69C319.781 435.69 319.264 435.863 319.048 436.078C318.79 436.337 317.842 436.681 316.894 436.94C315.946 437.155 314.611 437.543 313.878 437.759C313.189 438.017 311.422 438.534 310 438.965C308.579 439.353 306.683 439.956 305.778 440.258C304.916 440.602 303.753 440.861 303.279 440.861C302.762 440.861 301.469 441.162 300.349 441.507C296.515 442.713 286.39 444.437 277.902 445.385C270.793 446.117 253.731 446.462 243.218 446.031ZM269.931 424.704C273.507 424.316 277.859 423.756 279.625 423.411C281.435 423.066 283.417 422.765 284.106 422.765C284.752 422.765 286.605 422.463 288.156 422.075C293.671 420.783 294.92 420.524 296.644 420.137C297.592 419.921 299.746 419.361 301.383 418.887C303.064 418.37 305.002 417.81 305.692 417.595C306.984 417.25 308.492 416.733 311.638 415.613C315.515 414.191 316.98 413.631 318.101 413.027C318.79 412.683 319.522 412.424 319.738 412.424C320.556 412.424 332.146 406.823 337.144 404.023C338.566 403.204 340.117 402.342 340.591 402.084C341.065 401.825 342.056 401.265 342.745 400.791C343.478 400.317 344.34 399.8 344.684 399.628C345.288 399.326 347.313 397.991 353.517 393.682C366.141 384.979 380.23 371.148 391.475 356.456C393.888 353.268 398.541 346.633 398.541 346.374C398.541 346.245 399.274 345.038 400.222 343.66C402.936 339.523 411.036 323.927 411.036 322.849C411.036 322.634 411.639 321.298 412.329 319.876C413.061 318.412 413.621 317.076 413.621 316.86C413.621 316.645 414.095 315.396 414.655 314.103C415.258 312.767 415.862 310.958 416.034 310.053C416.163 309.105 416.465 308.2 416.637 307.942C416.81 307.726 417.24 306.434 417.628 305.141C418.016 303.849 418.705 301.436 419.179 299.756C419.653 298.118 420.256 295.878 420.472 294.801C420.687 293.724 421.204 291.526 421.549 289.846C424.823 275.111 425.771 255.765 423.962 238.789C423.531 234.395 422.928 229.871 422.669 228.664C422.411 227.501 421.851 224.657 421.377 222.417C419.438 213.154 418.49 209.707 414.914 199.366C412.587 192.688 404.746 176.272 401.213 170.628C400.825 170.025 399.446 167.784 398.153 165.673C390.829 153.739 374.241 134.91 363.427 126.293C359.333 123.062 352.784 118.451 350.501 117.288C350.027 117.03 349.079 116.47 348.347 116.039C345.805 114.401 337.144 110.265 333.482 108.886C332.405 108.499 330.983 107.895 330.337 107.551C329.647 107.206 328.743 106.947 328.312 106.947C327.838 106.947 326.847 106.689 326.071 106.344C323.96 105.483 321.806 104.75 320.126 104.362C319.307 104.147 317.282 103.587 315.602 103.07C313.964 102.596 311.724 102.036 310.647 101.82C309.57 101.605 307.846 101.26 306.769 101.002C294.317 98.0719 276.652 97.5548 267.475 99.8814C266.096 100.183 264.588 100.485 264.071 100.485C263.166 100.485 259.72 101.346 257.005 102.294C256.316 102.51 255.153 102.854 254.42 103.07C252.654 103.544 249.164 104.922 246.622 106.086C239.771 109.231 237.444 110.524 226.716 117.073C215.298 124.053 203.493 135.255 194.273 147.879C188.413 155.85 187.336 157.659 183.501 165.544C182.295 168.043 181.175 170.37 180.959 170.757C180.787 171.102 180.011 172.955 179.279 174.85C178.503 176.703 177.642 178.814 177.297 179.461C176.952 180.15 176.651 181.184 176.651 181.787V182.864L178.072 181.701C178.805 181.055 180.528 179.504 181.821 178.297C185.526 174.807 191.903 169.896 197.332 166.32C205.949 160.632 212.067 157.573 220.124 154.945C226.975 152.705 227.018 152.705 237.832 150.464C242.442 149.516 254.032 149.128 263.296 149.559C268.164 149.818 272.43 150.119 272.774 150.249C273.119 150.378 274.843 150.766 276.609 151.067C278.376 151.412 281.004 151.972 282.426 152.317C283.848 152.705 285.872 153.178 286.95 153.437C288.027 153.695 289.276 154.083 289.75 154.299C290.224 154.514 291.603 155.031 292.766 155.419C296.816 156.841 304.098 160.244 309.57 163.304C328.915 174.161 345.201 192.257 354.379 213.154C354.68 213.886 355.154 214.92 355.413 215.523C355.671 216.126 356.748 219.229 357.739 222.417C359.506 227.846 360.023 229.957 361.703 238.359C362.048 240.125 362.522 244.994 362.737 249.13C363.771 268.777 360.712 286.916 353.646 302.556C348.648 313.672 341.754 323.668 332.879 332.544C327.536 337.886 321.892 342.798 319.048 344.608C318.359 345.038 317.67 345.512 317.54 345.642C316.032 347.236 302.504 354.647 296.213 357.275C295.739 357.49 294.447 358.05 293.326 358.524C292.206 359.041 291.129 359.429 290.914 359.429C290.698 359.429 289.923 359.731 289.276 360.075C288.587 360.42 287.725 360.722 287.381 360.722C286.993 360.722 286.519 360.894 286.303 361.109C286.045 361.282 285.011 361.713 283.934 361.971C282.857 362.273 281.047 362.79 279.841 363.091C273.981 364.685 270.577 365.547 268.638 365.935C261.228 367.357 256.876 367.917 246.449 368.951C237.918 369.77 216.16 369.08 206.164 367.615C202.028 367.012 187.077 364.082 183.113 363.091C181.562 362.747 179.537 362.23 178.546 362.014C177.599 361.799 176.349 361.454 175.746 361.196C175.186 360.98 173.247 360.334 171.48 359.817C169.714 359.3 168.077 358.74 167.818 358.567C167.603 358.395 166.698 358.093 165.879 357.921C165.061 357.749 164.199 357.447 163.94 357.318C163.725 357.145 162.562 356.628 161.355 356.198C154.289 353.656 137.701 345.168 133.307 341.807C132.79 341.419 131.928 340.816 131.411 340.471C128.912 338.791 120.984 332.759 116.848 329.312C111.591 324.961 104.181 317.421 100.389 312.552C97.1147 308.33 94.1418 305.098 94.5727 306.218C94.745 306.692 95.0897 307.856 95.3482 308.803C95.5636 309.751 96.253 311.561 96.77 312.81C97.3301 314.06 97.8041 315.266 97.8041 315.525C97.8041 315.74 98.2349 316.86 98.7089 317.981C99.2259 319.101 100.303 321.514 101.079 323.366C102.587 326.899 106.033 333.621 109.739 340.256C118.011 355.077 129.213 368.865 143.906 382.307C150.498 388.339 163.294 397.689 169.111 400.791C169.585 401.05 170.576 401.61 171.265 402.084C174.152 403.893 183.975 409.02 187.077 410.313C188.327 410.83 190.007 411.476 190.783 411.821C194.014 413.243 195.048 413.631 196.685 414.234C199.615 415.311 201.382 415.914 202.717 416.302C204.398 416.776 206.638 417.551 208.448 418.284C209.223 418.629 210.344 418.887 210.947 418.887C211.55 418.887 212.455 419.102 212.972 419.404C213.489 419.663 214.781 420.05 215.858 420.223C216.936 420.395 218.573 420.74 219.521 420.998C221.373 421.472 225.553 422.291 231.369 423.368C233.394 423.756 236.023 424.057 237.186 424.1C238.392 424.1 240.977 424.402 243.002 424.704C248.216 425.479 262.219 425.479 269.931 424.704ZM191.3 343.315C191.3 343.186 190.223 342.626 188.887 342.022C187.551 341.419 185.699 340.299 184.708 339.523C183.717 338.748 182.726 337.972 182.467 337.8C175.832 333.018 164.931 322.375 156.874 312.983C152.178 307.468 145.629 298.98 141.622 293.336C140.157 291.225 138.391 288.726 137.701 287.735C132.703 280.669 124.302 265.546 121.07 257.747C118.27 251.026 116.029 244.218 114.823 238.789C111.678 224.528 111.29 221.469 110.859 207.768C110.514 195.919 111.591 184.674 114.392 170.068C115.168 165.975 115.857 163.433 116.374 162.485C117.408 160.546 116.245 161.968 113.66 165.889C104.741 179.116 97.3732 195.23 94.1849 208.199C92.5907 214.877 92.246 217.161 91.5567 225.218C91.0396 231.465 91.0396 233.533 91.5567 239.436C91.8583 243.227 92.3753 247.407 92.6338 248.699C92.8923 249.992 93.4094 252.534 93.7971 254.3C94.1418 256.067 94.7019 258.178 95.0466 258.953C95.3913 259.729 95.6498 260.634 95.6498 260.935C95.6498 261.28 95.9514 262.099 96.2961 262.745C96.6408 263.434 96.9424 264.339 96.9424 264.77C96.9424 265.158 97.1147 265.847 97.3732 266.278C97.5887 266.666 98.0626 267.786 98.4504 268.734C99.9153 272.31 104.525 281.401 107.024 285.537C113.53 296.481 125.206 309.838 134.211 316.645C135.418 317.507 136.624 318.498 136.926 318.799C138.994 320.824 147.439 326.598 152.092 329.183C156.056 331.38 164.5 335.473 167.818 336.852C168.551 337.111 169.843 337.671 170.748 338.059C171.653 338.446 172.687 338.748 173.118 338.748C173.505 338.748 174.238 339.05 174.669 339.394C175.143 339.739 175.875 340.041 176.349 340.041C176.823 340.041 178.159 340.342 179.408 340.73C183.372 341.979 184.148 342.152 187.163 342.583C188.758 342.798 190.223 343.1 190.352 343.229C190.61 343.53 191.3 343.574 191.3 343.315ZM267.044 341.505C269.5 341.161 271.87 340.687 272.301 340.471C272.731 340.213 273.636 340.041 274.326 340.041C275.532 340.041 278.634 339.179 281.262 338.059C282.038 337.714 282.943 337.455 283.287 337.455C283.632 337.455 284.623 337.154 285.528 336.766C286.433 336.378 287.811 335.818 288.587 335.473C291.086 334.439 293.197 333.491 293.843 333.104C294.188 332.931 295.481 332.242 296.644 331.639C303.107 328.278 309.225 323.711 315.688 317.507C322.926 310.527 328.096 303.461 333.31 293.508C335.205 289.846 337.618 283.34 338.911 278.514C339.212 277.308 339.773 275.154 340.16 273.775C341.022 270.544 342.099 261.065 342.099 256.541C342.099 252.103 341.453 245.64 340.548 241.375C338.911 233.705 337.834 229.698 336.886 227.932C336.67 227.501 336.498 226.941 336.498 226.725C336.498 225.907 333.051 218.582 330.768 214.446C328.829 210.999 324.779 205.097 322.323 202.167C315.774 194.411 306.64 186.613 299.229 182.434C295.825 180.538 287.854 176.746 287.208 176.746C286.863 176.746 286.476 176.574 286.303 176.358C286.174 176.143 285.442 175.798 284.666 175.626C283.934 175.497 282.727 175.109 281.995 174.807C279.194 173.601 272.688 172.007 266.915 171.059C262.391 170.326 249.853 170.326 244.941 171.102C242.83 171.404 239.211 172.179 236.97 172.739C234.73 173.299 232.102 173.989 231.154 174.204C230.249 174.463 229.258 174.807 229 174.98C228.784 175.195 228.095 175.454 227.492 175.583C224.863 176.143 219.219 178.642 213.92 181.615C205.001 186.57 194.833 195.445 187.896 204.278C183.113 210.396 177.297 220.78 175.358 226.725C175.143 227.329 174.583 228.88 174.109 230.172C173.592 231.465 172.816 234.179 172.299 236.204C171.825 238.229 171.265 240.556 171.049 241.375C170.791 242.193 170.403 245.942 170.102 249.69C169.541 257.101 170.059 267.226 171.222 271.965C172.385 276.705 173.161 279.247 173.592 280.108C173.85 280.582 174.065 281.272 174.065 281.66C174.065 282.047 174.324 282.995 174.669 283.728C174.97 284.503 175.487 285.796 175.789 286.614C177.857 292.259 183.415 302.384 187.336 307.511C195.35 318.024 206.767 327.546 217.797 332.888C220.167 334.052 222.451 335.129 222.838 335.344C223.872 335.861 226.975 336.981 228.569 337.455C229.301 337.628 230.464 338.015 231.154 338.231C235.118 339.61 242.055 341.161 246.018 341.592C247.569 341.764 249.982 342.022 251.404 342.238C254.635 342.626 261.228 342.324 267.044 341.505ZM148.171 260.979C147.999 258.867 147.654 251.931 147.352 245.597C146.835 234.05 147.18 220.607 148.257 212.723C148.473 211.085 148.86 208.069 149.076 206.044C149.291 204.019 149.679 201.607 149.894 200.659C150.153 199.711 150.627 197.384 151.015 195.488C151.661 192.386 152.221 189.93 153.858 183.64C154.117 182.563 154.591 181.012 154.892 180.193C155.194 179.374 155.754 177.608 156.142 176.315C156.573 175.023 157.219 173.17 157.564 172.222C157.908 171.274 158.382 170.111 158.555 169.637C161.312 162.14 167.56 148.784 169.757 145.725C170.231 145.078 170.619 144.389 170.619 144.26C170.619 143.915 176.349 135.772 179.408 131.722C186.388 122.588 195.048 114.186 206.207 105.784C211.033 102.165 215.298 99.1921 215.6 99.1921C215.686 99.1921 216.806 98.5027 218.056 97.641C219.348 96.7793 220.986 95.7883 221.675 95.4436C222.407 95.099 224.131 94.1942 225.553 93.3755C226.975 92.5569 229.172 91.3936 230.378 90.7904C234.17 88.8946 233.653 88.2483 229.474 89.4978C228.31 89.8425 226.673 90.1441 225.854 90.1441C224.993 90.1441 223.14 90.4457 221.718 90.8335C220.253 91.1782 217.927 91.7814 216.505 92.126C212.11 93.2463 209.223 94.108 207.758 94.7112C206.983 95.0559 206.078 95.3144 205.733 95.3144C205.389 95.3144 204.484 95.5729 203.708 95.9176C202.933 96.2623 201.425 96.8655 200.348 97.2532C198.021 98.1149 196.728 98.6751 193.023 100.398C191.472 101.088 189.921 101.82 189.576 101.95C187.293 102.941 178.934 108.068 177.297 109.533C176.608 110.136 174.453 111.816 172.557 113.238C164.716 119.012 154.462 130.645 147.956 141.028C145.5 144.992 140.416 154.557 139.899 156.281C139.769 156.755 139.339 157.918 138.951 158.866C138.304 160.503 137.4 163.304 135.849 168.56C135.461 169.853 135.03 171.404 134.815 172.007C134.47 173.084 134.039 175.238 132.876 181.701C132.1 185.967 132.057 186.268 131.152 196.393C130.42 204.149 130.42 205.01 131.152 212.119C131.971 220.306 133.522 229.698 134.771 233.619C135.03 234.438 135.547 236.29 135.935 237.712C136.323 239.134 136.926 241.03 137.227 241.935C137.572 242.796 138.175 244.347 138.563 245.382C139.942 248.828 148.171 265.287 148.43 264.985C148.473 264.899 148.343 263.133 148.171 260.979Z" fill="white"/>
</g>
<defs>
<clipPath id="clip0_508_3234">
<rect width="512" height="512" fill="white"/>
</clipPath>
</defs>
</svg>
